<svg width="30" height="30" viewBox="0 0 30 30" fill="none" xmlns="http://www.w3.org/2000/svg">
<path d="M13.5938 24.125L5.34375 15.875C5.21875 15.75 5.13 15.6146 5.0775 15.4688C5.02583 15.3229 5 15.1667 5 15C5 14.8333 5.02583 14.6771 5.0775 14.5313C5.13 14.3854 5.21875 14.25 5.34375 14.125L13.5938 5.87501C13.8229 5.64584 14.1092 5.52585 14.4525 5.51501C14.7967 5.50501 15.0938 5.62501 15.3438 5.87501C15.5938 6.10418 15.7242 6.39043 15.735 6.73376C15.745 7.07793 15.625 7.37501 15.375 7.62501L9.25 13.75L23.2188 13.75C23.5729 13.75 23.87 13.8696 24.11 14.1088C24.3492 14.3488 24.4688 14.6458 24.4688 15C24.4688 15.3542 24.3492 15.6508 24.11 15.89C23.87 16.13 23.5729 16.25 23.2188 16.25H9.25L15.375 22.375C15.6042 22.6042 15.7242 22.8958 15.735 23.25C15.745 23.6042 15.625 23.8958 15.375 24.125C15.1458 24.375 14.8542 24.5 14.5 24.5C14.1458 24.5 13.8438 24.375 13.5938 24.125V24.125Z" fill="#2F56A6"/>
</svg>
