<svg width="20" height="20" viewBox="0 0 20 20" fill="none" xmlns="http://www.w3.org/2000/svg">
<path d="M11.4063 0.874989L19.6563 9.12499C19.7813 9.24999 19.87 9.38541 19.9225 9.53124C19.9742 9.67707 20 9.83332 20 9.99999C20 10.1667 19.9742 10.3229 19.9225 10.4687C19.87 10.6146 19.7813 10.75 19.6563 10.875L11.4062 19.125C11.1771 19.3542 10.8908 19.4742 10.5475 19.485C10.2033 19.495 9.90625 19.375 9.65625 19.125C9.40625 18.8958 9.27583 18.6096 9.265 18.2662C9.255 17.9221 9.375 17.625 9.625 17.375L15.75 11.25L1.78125 11.25C1.42708 11.25 1.13 11.1304 0.889999 10.8912C0.650832 10.6512 0.531248 10.3542 0.531248 9.99999C0.531248 9.64582 0.650832 9.34915 0.889999 9.10999C1.13 8.86999 1.42708 8.74999 1.78125 8.74999L15.75 8.74999L9.625 2.62499C9.39583 2.39582 9.27583 2.10415 9.265 1.74999C9.255 1.39582 9.375 1.10416 9.625 0.874989C9.85417 0.624989 10.1458 0.499988 10.5 0.499988C10.8542 0.499988 11.1563 0.624989 11.4063 0.874989V0.874989Z" fill="white"/>
</svg>
